<svg width="148" height="41" viewBox="0 0 148 41" fill="none" xmlns="http://www.w3.org/2000/svg">
<path d="M31.488 9.552C31.488 11.088 31.136 12.544 30.432 13.92C29.76 15.264 28.816 16.48 27.6 17.568C26.384 18.624 24.96 19.52 23.328 20.256C21.696 20.992 19.92 21.488 18 21.744C18.48 23.184 19.056 24.672 19.728 26.208C20.432 27.712 21.184 29.168 21.984 30.576C22.784 31.984 23.616 33.28 24.48 34.464C25.344 35.648 26.192 36.624 27.024 37.392C26.864 37.712 26.624 38.032 26.304 38.352C26.016 38.672 25.664 38.96 25.248 39.216C24.864 39.504 24.448 39.728 24 39.888C23.584 40.08 23.184 40.176 22.8 40.176C22.096 40.176 21.424 39.84 20.784 39.168C20.144 38.496 19.488 37.44 18.816 36C18.176 34.528 17.488 32.64 16.752 30.336C16.048 28 15.264 25.2 14.4 21.936C14.048 21.936 13.696 21.936 13.344 21.936C12.992 21.936 12.72 21.904 12.528 21.84C12.304 21.712 12.064 21.488 11.808 21.168C10.944 23.024 10.176 24.768 9.504 26.4C8.832 28.032 8.224 29.616 7.68 31.152C7.168 32.656 6.704 34.128 6.288 35.568C5.904 36.976 5.568 38.416 5.28 39.888C4.192 39.632 3.248 39.168 2.448 38.496C1.648 37.824 0.896 36.88 0.192 35.664C0.32 35.376 0.448 35.104 0.576 34.848C0.736 34.56 0.928 34.176 1.152 33.696C1.376 33.184 1.648 32.544 1.968 31.776C2.32 31.008 2.768 29.984 3.312 28.704C3.888 27.424 4.56 25.856 5.328 24C6.128 22.144 7.088 19.888 8.208 17.232C8.72 16.048 9.152 15.008 9.504 14.112C9.888 13.216 10.224 12.368 10.512 11.568C10.8 10.736 11.056 9.92 11.28 9.12C11.536 8.288 11.792 7.344 12.048 6.288C10.576 6.8 9.2 7.376 7.92 8.016C6.672 8.624 5.632 9.28 4.8 9.984C4.512 9.792 4.208 9.504 3.888 9.12C3.6 8.736 3.328 8.32 3.072 7.872C2.816 7.392 2.592 6.912 2.4 6.432C2.208 5.952 2.096 5.52 2.064 5.136C3.024 4.496 4.192 3.904 5.568 3.36C6.976 2.816 8.464 2.352 10.032 1.968C11.6 1.552 13.2 1.232 14.832 1.008C16.464 0.783998 17.984 0.671997 19.392 0.671997C23.232 0.671997 26.208 1.472 28.32 3.072C30.432 4.64 31.488 6.8 31.488 9.552ZM19.776 5.52C19.552 5.808 19.2 6.384 18.72 7.248C18.24 8.112 17.68 9.152 17.04 10.368C16.432 11.552 15.776 12.848 15.072 14.256C14.4 15.664 13.744 17.056 13.104 18.432C15.504 18.432 17.712 18.208 19.728 17.76C21.744 17.312 23.488 16.688 24.96 15.888C26.432 15.056 27.568 14.096 28.368 13.008C29.2 11.888 29.616 10.656 29.616 9.312C29.616 7.712 29.04 6.496 27.888 5.664C26.736 4.8 24.96 4.368 22.56 4.368C22.016 4.368 21.472 4.4 20.928 4.464C20.384 4.496 19.808 4.544 19.2 4.608L19.776 5.52ZM62.8628 3.648C62.9588 4.192 63.0228 4.576 63.0548 4.8C63.1188 4.992 63.1508 5.264 63.1508 5.616C63.1508 6.672 62.9108 7.664 62.4308 8.592C61.9828 9.488 61.3588 10.128 60.5588 10.512C59.9188 9.648 59.1348 8.912 58.2068 8.304C57.2788 7.664 56.2548 7.152 55.1348 6.768C54.0468 6.352 52.9108 6.048 51.7268 5.856C50.5428 5.664 49.3908 5.568 48.2708 5.568C47.1508 5.568 46.0948 5.664 45.1028 5.856C44.1428 6.016 43.2788 6.256 42.5108 6.576C41.7748 6.864 41.1828 7.232 40.7348 7.68C40.3188 8.128 40.1108 8.64 40.1108 9.216C40.2068 9.92 40.6388 10.64 41.4068 11.376C42.1748 12.08 43.1188 12.784 44.2388 13.488C45.3588 14.16 46.5908 14.832 47.9348 15.504C49.3108 16.176 50.6548 16.816 51.9668 17.424C53.5988 18.192 55.0068 18.912 56.1908 19.584C57.3748 20.224 58.3508 20.944 59.1188 21.744C59.8868 22.512 60.4628 23.392 60.8468 24.384C61.2308 25.376 61.4228 26.576 61.4228 27.984C61.4228 29.616 61.1508 31.152 60.6068 32.592C60.0628 34 59.2628 35.232 58.2068 36.288C57.1828 37.344 55.9348 38.16 54.4628 38.736C52.9908 39.344 51.3428 39.648 49.5188 39.648C47.7268 39.648 45.7908 39.376 43.7108 38.832C41.6308 38.288 39.6788 37.536 37.8548 36.576C36.0628 35.648 34.5588 34.576 33.3428 33.36C32.1588 32.112 31.5668 30.8 31.5668 29.424C31.5668 28.784 31.7428 27.968 32.0948 26.976C32.4788 25.984 33.1508 24.944 34.1108 23.856C34.2068 24.816 34.7188 25.952 35.6468 27.264C36.6068 28.576 38.0308 29.792 39.9188 30.912C41.6788 31.936 43.4868 32.688 45.3428 33.168C47.2308 33.616 48.9908 33.84 50.6228 33.84C52.4148 33.84 53.8708 33.616 54.9908 33.168C56.1108 32.72 56.9908 32.192 57.6308 31.584C58.2708 30.944 58.7188 30.304 58.9748 29.664C59.2308 29.024 59.3748 28.512 59.4068 28.128C59.3748 27.488 59.0708 26.88 58.4948 26.304C57.9508 25.696 57.1988 25.12 56.2388 24.576C55.3108 24 54.2228 23.424 52.9748 22.848C51.7268 22.272 50.4308 21.696 49.0868 21.12C47.0708 20.224 45.3268 19.392 43.8548 18.624C42.4148 17.824 41.2148 17.024 40.2548 16.224C39.3268 15.392 38.6388 14.528 38.1908 13.632C37.7748 12.736 37.5668 11.712 37.5668 10.56C37.5668 8.768 38.1108 7.072 39.1988 5.472C40.2868 3.872 41.8548 2.656 43.9028 1.824C44.9268 1.376 46.0148 1.056 47.1668 0.863997C48.3508 0.671998 49.5028 0.575998 50.6228 0.575998C52.7348 0.575998 54.7988 0.863998 56.8148 1.44C58.8308 2.016 60.8468 2.752 62.8628 3.648Z" fill="#C46767"/>
<path d="M67.7659 29.304C67.0219 29.304 66.4219 29.1 65.9659 28.692C65.5339 28.26 65.3179 27.672 65.3179 26.928C65.3179 26.808 65.3419 26.628 65.3899 26.388C65.4379 26.148 65.4859 25.968 65.5339 25.848C65.9419 25.92 66.3259 25.968 66.6859 25.992C67.0459 25.992 67.5139 25.992 68.0899 25.992C69.3139 25.992 70.4539 25.956 71.5099 25.884C72.5899 25.812 73.5619 25.728 74.4259 25.632C75.2899 25.536 76.0339 25.452 76.6579 25.38C77.2819 25.308 77.7619 25.272 78.0979 25.272C78.5539 25.272 78.9499 25.548 79.2859 26.1C79.6459 26.652 79.9099 27.444 80.0779 28.476C79.4779 28.404 78.9859 28.356 78.6019 28.332C78.2179 28.308 77.8819 28.296 77.5939 28.296C76.5619 28.296 75.6019 28.356 74.7139 28.476C73.8259 28.572 72.9859 28.68 72.1939 28.8C71.4019 28.92 70.6459 29.04 69.9259 29.16C69.2059 29.256 68.4859 29.304 67.7659 29.304ZM103.467 14.432C103.531 14.7947 103.574 15.0507 103.595 15.2C103.638 15.328 103.659 15.5093 103.659 15.744C103.659 16.448 103.499 17.1093 103.179 17.728C102.88 18.3253 102.464 18.752 101.931 19.008C101.504 18.432 100.982 17.9413 100.363 17.536C99.7444 17.1093 99.0618 16.768 98.3151 16.512C97.5898 16.2347 96.8324 16.032 96.0431 15.904C95.2538 15.776 94.4858 15.712 93.7391 15.712C92.9924 15.712 92.2884 15.776 91.6271 15.904C90.9871 16.0107 90.4111 16.1707 89.8991 16.384C89.4084 16.576 89.0138 16.8213 88.7151 17.12C88.4378 17.4187 88.2991 17.76 88.2991 18.144C88.3631 18.6133 88.6511 19.0933 89.1631 19.584C89.6751 20.0533 90.3044 20.5227 91.0511 20.992C91.7978 21.44 92.6191 21.888 93.5151 22.336C94.4324 22.784 95.3284 23.2107 96.2031 23.616C97.2911 24.128 98.2298 24.608 99.0191 25.056C99.8084 25.4827 100.459 25.9627 100.971 26.496C101.483 27.008 101.867 27.5947 102.123 28.256C102.379 28.9173 102.507 29.7173 102.507 30.656C102.507 31.744 102.326 32.768 101.963 33.728C101.6 34.6667 101.067 35.488 100.363 36.192C99.6804 36.896 98.8484 37.44 97.8671 37.824C96.8858 38.2293 95.7871 38.432 94.5711 38.432C93.3764 38.432 92.0858 38.2507 90.6991 37.888C89.3124 37.5253 88.0111 37.024 86.7951 36.384C85.6004 35.7653 84.5978 35.0507 83.7871 34.24C82.9978 33.408 82.6031 32.5333 82.6031 31.616C82.6031 31.1893 82.7204 30.6453 82.9551 29.984C83.2111 29.3227 83.6591 28.6293 84.2991 27.904C84.3631 28.544 84.7044 29.3013 85.3231 30.176C85.9631 31.0507 86.9124 31.8613 88.1711 32.608C89.3444 33.2907 90.5498 33.792 91.7871 34.112C93.0458 34.4107 94.2191 34.56 95.3071 34.56C96.5018 34.56 97.4724 34.4107 98.2191 34.112C98.9658 33.8133 99.5524 33.4613 99.9791 33.056C100.406 32.6293 100.704 32.2027 100.875 31.776C101.046 31.3493 101.142 31.008 101.163 30.752C101.142 30.3253 100.939 29.92 100.555 29.536C100.192 29.1307 99.6911 28.7467 99.0511 28.384C98.4324 28 97.7071 27.616 96.8751 27.232C96.0431 26.848 95.1791 26.464 94.2831 26.08C92.9391 25.4827 91.7764 24.928 90.7951 24.416C89.8351 23.8827 89.0351 23.3493 88.3951 22.816C87.7764 22.2613 87.3178 21.6853 87.0191 21.088C86.7418 20.4907 86.6031 19.808 86.6031 19.04C86.6031 17.8453 86.9658 16.7147 87.6911 15.648C88.4164 14.5813 89.4618 13.7707 90.8271 13.216C91.5098 12.9173 92.2351 12.704 93.0031 12.576C93.7924 12.448 94.5604 12.384 95.3071 12.384C96.7151 12.384 98.0911 12.576 99.4351 12.96C100.779 13.344 102.123 13.8347 103.467 14.432ZM104.757 33.856C104.757 33.664 104.768 33.4293 104.789 33.152C104.832 32.8533 104.896 32.4693 104.981 32C105.066 31.5093 105.173 30.9227 105.301 30.24C105.45 29.5573 105.632 28.736 105.845 27.776C105.888 27.5627 105.984 27.2213 106.133 26.752C106.282 26.2827 106.474 25.792 106.709 25.28C106.965 24.7467 107.264 24.2347 107.605 23.744C107.968 23.2533 108.394 22.8907 108.885 22.656C109.248 22.7413 109.728 22.9653 110.325 23.328C110.922 23.6693 111.434 24.1493 111.861 24.768C111.37 25.3227 110.954 25.8773 110.613 26.432C110.293 26.9867 109.994 27.5627 109.717 28.16C109.461 28.7573 109.216 29.376 108.981 30.016C108.768 30.656 108.522 31.328 108.245 32.032C108.01 32.6293 107.797 33.248 107.605 33.888C107.413 34.5067 107.306 35.0507 107.285 35.52C107.285 35.904 107.274 36.1707 107.253 36.32C107.253 36.4907 107.2 36.576 107.093 36.576C107.008 36.576 106.837 36.5227 106.581 36.416C106.325 36.3093 106.058 36.1493 105.781 35.936C105.525 35.7013 105.29 35.4133 105.077 35.072C104.864 34.7307 104.757 34.3253 104.757 33.856ZM110.869 19.968C110.869 19.84 110.901 19.648 110.965 19.392C110.858 19.2853 110.762 19.1253 110.677 18.912C110.613 18.6987 110.581 18.5067 110.581 18.336C110.581 18.144 110.602 17.888 110.645 17.568C110.709 17.2267 110.784 16.864 110.869 16.48C110.954 16.096 111.061 15.7013 111.189 15.296C111.317 14.8693 111.445 14.4853 111.573 14.144C111.829 14.144 112.138 14.2187 112.501 14.368C112.885 14.496 113.269 14.6773 113.653 14.912C114.037 15.1253 114.389 15.3707 114.709 15.648C115.029 15.904 115.274 16.1493 115.445 16.384C115.21 16.6187 114.901 16.9493 114.517 17.376C114.133 17.7813 113.76 18.2187 113.397 18.688C113.034 19.136 112.704 19.5627 112.405 19.968C112.106 20.3733 111.914 20.6613 111.829 20.832C111.573 20.7893 111.349 20.6827 111.157 20.512C110.965 20.32 110.869 20.1387 110.869 19.968ZM112.256 33.952C112.256 33.0133 112.48 31.7013 112.928 30.016C113.376 28.3093 114.005 26.3253 114.816 24.064C116.138 20.4587 117.376 17.4613 118.528 15.072C119.701 12.6613 120.842 10.784 121.952 9.44C122.208 9.48266 122.517 9.58933 122.88 9.76C123.264 9.93067 123.637 10.1227 124 10.336C124.362 10.528 124.682 10.7307 124.96 10.944C125.258 11.1573 125.45 11.328 125.536 11.456C123.872 13.4187 122.41 15.5307 121.152 17.792C119.893 20.0533 118.741 22.6453 117.696 25.568C116.8 28.0853 116.117 30.3573 115.648 32.384C115.178 34.3893 114.944 36.064 114.944 37.408C114.944 37.7707 114.944 37.9947 114.944 38.08C114.944 38.1653 114.954 38.2507 114.976 38.336C114.677 38.2933 114.421 38.2187 114.208 38.112C113.994 38.0053 113.856 37.8773 113.792 37.728C113.749 37.6213 113.632 37.4613 113.44 37.248C113.248 37.056 113.077 36.9067 112.928 36.8C112.736 36.672 112.576 36.3413 112.448 35.808C112.32 35.2533 112.256 34.6347 112.256 33.952ZM121.423 24.672C121.423 24.288 121.444 23.9253 121.487 23.584C121.551 23.2427 121.668 22.9547 121.839 22.72C122.009 22.464 122.244 22.272 122.543 22.144C122.841 21.9947 123.236 21.92 123.727 21.92C124.025 21.92 124.356 21.952 124.719 22.016C125.103 22.08 125.38 22.1973 125.551 22.368C125.465 22.7307 125.391 23.0507 125.327 23.328C125.284 23.6053 125.241 23.9147 125.199 24.256C125.177 24.576 125.156 24.9707 125.135 25.44C125.113 25.888 125.092 26.4747 125.071 27.2C125.028 28.6507 124.953 29.952 124.847 31.104C124.761 32.2347 124.548 33.3653 124.207 34.496C124.207 34.5813 124.239 34.624 124.303 34.624C124.623 34.3893 124.985 34.048 125.391 33.6C125.796 33.152 126.223 32.6507 126.671 32.096C127.119 31.52 127.567 30.912 128.015 30.272C128.463 29.632 128.879 29.0027 129.263 28.384C129.775 27.488 130.34 26.368 130.959 25.024C131.577 23.68 132.089 22.24 132.495 20.704C132.623 20.704 132.783 20.736 132.975 20.8C133.188 20.8427 133.391 20.9067 133.583 20.992C133.796 21.056 133.977 21.1307 134.127 21.216C134.297 21.3013 134.415 21.376 134.479 21.44C134.436 22.3573 134.212 23.296 133.807 24.256C133.423 25.216 132.953 26.144 132.399 27.04C131.844 27.936 131.257 28.7787 130.639 29.568C130.02 30.3573 129.455 31.04 128.943 31.616C127.919 32.8107 126.884 33.8773 125.839 34.816C124.815 35.7547 123.588 36.6613 122.159 37.536C121.604 37.3227 121.167 37.0347 120.847 36.672C120.527 36.3307 120.367 35.968 120.367 35.584C120.367 35.328 120.42 35.04 120.527 34.72C120.655 34.3787 120.793 33.952 120.943 33.44C121.092 32.9067 121.22 32.2453 121.327 31.456C121.455 30.6667 121.519 29.664 121.519 28.448C121.519 27.744 121.497 27.04 121.455 26.336C121.433 25.6107 121.423 25.056 121.423 24.672ZM145.046 23.072C145.26 23.072 145.505 23.1147 145.782 23.2C146.081 23.264 146.348 23.36 146.582 23.488C146.817 23.5947 147.009 23.712 147.158 23.84C147.329 23.968 147.414 24.0853 147.414 24.192C146.988 25.088 146.593 25.9947 146.23 26.912C145.868 27.808 145.558 28.672 145.302 29.504C145.046 30.336 144.844 31.1147 144.694 31.84C144.566 32.5653 144.502 33.1947 144.502 33.728C144.502 34.3253 144.566 34.8267 144.694 35.232C144.822 35.616 145.036 35.8933 145.334 36.064C145.078 36.2347 144.748 36.3733 144.342 36.48C143.937 36.5867 143.574 36.64 143.254 36.64C142.102 36.64 141.526 35.8507 141.526 34.272C141.526 33.056 141.932 31.392 142.742 29.28C142.316 30.2613 141.825 31.1893 141.27 32.064C140.716 32.9173 140.15 33.6747 139.574 34.336C138.998 34.9973 138.412 35.5413 137.814 35.968C137.238 36.3733 136.705 36.6187 136.214 36.704C135.425 36.6613 134.785 36.288 134.294 35.584C133.804 34.8587 133.558 33.9413 133.558 32.832C133.558 31.6373 133.814 30.3787 134.326 29.056C134.838 27.7333 135.489 26.5067 136.278 25.376C137.089 24.2453 137.964 23.3067 138.902 22.56C139.841 21.792 140.748 21.3867 141.622 21.344C141.836 21.408 142.07 21.536 142.326 21.728C142.604 21.92 142.86 22.144 143.094 22.4C143.35 22.656 143.564 22.9227 143.734 23.2C143.905 23.456 144.001 23.68 144.022 23.872C143.169 24 142.284 24.416 141.366 25.12C140.47 25.824 139.649 26.6773 138.902 27.68C138.177 28.6613 137.58 29.7173 137.11 30.848C136.641 31.9787 136.406 33.0347 136.406 34.016C136.406 34.4213 136.556 34.6773 136.854 34.784C137.473 34.656 138.188 34.1333 138.998 33.216C139.809 32.2773 140.79 30.8373 141.942 28.896C142.156 28.512 142.39 28.0853 142.646 27.616C142.924 27.1467 143.201 26.656 143.478 26.144C143.756 25.632 144.022 25.12 144.278 24.608C144.556 24.0747 144.812 23.5627 145.046 23.072Z" fill="#060606"/>
</svg>
